
        <svg xmlns="http://www.w3.org/2000/svg" xmlns:xlink="http://www.w3.org/1999/xlink" version="1.1" width="3187.5" height="1119.0160487560515" viewBox="0 0 3187.5 1119.0160487560515">
			
			<g transform="scale(9.375) translate(10, 10)">
				<defs id="SvgjsDefs1277"/><g id="SvgjsG1278" featureKey="QMusi1-0" transform="matrix(2.127659574468085,0,0,2.127659574468085,-1.0638297872340425,-1.0638297872340425)" fill="#000"><path xmlns="http://www.w3.org/2000/svg" d="M45.7,3.2h1.6c0.1,0,0.2-0.1,0.2-0.2V1.8c0-0.7-0.6-1.3-1.2-1.3H1.7c-0.7,0-1.2,0.6-1.2,1.3v1.2  c0,0.1,0.1,0.2,0.2,0.2h1.6c0.1,0,0.2,0.1,0.2,0.2v5.5c0,0.1-0.1,0.2-0.2,0.2H0.7c-0.1,0-0.2,0.1-0.2,0.2v29.1  c0,0.1,0.1,0.2,0.2,0.2h1.6c0.1,0,0.2,0.1,0.2,0.2v5.5c0,0.1-0.1,0.2-0.2,0.2H0.7c-0.1,0-0.2,0.1-0.2,0.2v1.2c0,0.7,0.6,1.3,1.2,1.3  h44.5c0.7,0,1.2-0.6,1.2-1.3v-1.2c0-0.1-0.1-0.2-0.2-0.2h-1.6c-0.1,0-0.2-0.1-0.2-0.2v-5.5c0-0.1,0.1-0.2,0.2-0.2h1.6  c0.1,0,0.2-0.1,0.2-0.2V9.4c0-0.1-0.1-0.2-0.2-0.2h-1.6c-0.1,0-0.2-0.1-0.2-0.2V3.4C45.5,3.3,45.6,3.2,45.7,3.2z M16.1,3.4  c0-0.1,0.1-0.2,0.2-0.2h5.5c0.1,0,0.2,0.1,0.2,0.2v5.5c0,0.1-0.1,0.2-0.2,0.2h-5.5c-0.1,0-0.2-0.1-0.2-0.2V3.4z M27.7,23.6  c0.2,0.2,0.2,0.6,0,0.9l-6.6,6.6c-0.4,0.4-1.1,0.1-1.1-0.4V17.4c0-0.6,0.7-0.8,1.1-0.4L27.7,23.6z M12.3,44.6c0,0.1-0.1,0.2-0.2,0.2  H6.6c-0.1,0-0.2-0.1-0.2-0.2v-5.5c0-0.1,0.1-0.2,0.2-0.2h5.5c0.1,0,0.2,0.1,0.2,0.2V44.6z M12.3,8.9c0,0.1-0.1,0.2-0.2,0.2H6.6  c-0.1,0-0.2-0.1-0.2-0.2V3.4c0-0.1,0.1-0.2,0.2-0.2h5.5c0.1,0,0.2,0.1,0.2,0.2V8.9z M22.1,44.6c0,0.1-0.1,0.2-0.2,0.2h-5.5  c-0.1,0-0.2-0.1-0.2-0.2v-5.5c0-0.1,0.1-0.2,0.2-0.2h5.5c0.1,0,0.2,0.1,0.2,0.2V44.6z M31.9,44.6c0,0.1-0.1,0.2-0.2,0.2h-5.5  c-0.1,0-0.2-0.1-0.2-0.2v-5.5c0-0.1,0.1-0.2,0.2-0.2h5.5c0.1,0,0.2,0.1,0.2,0.2V44.6z M31.9,8.9c0,0.1-0.1,0.2-0.2,0.2h-5.5  c-0.1,0-0.2-0.1-0.2-0.2V3.4c0-0.1,0.1-0.2,0.2-0.2h5.5c0.1,0,0.2,0.1,0.2,0.2V8.9z M41.6,44.6c0,0.1-0.1,0.2-0.2,0.2h-5.5  c-0.1,0-0.2-0.1-0.2-0.2v-5.5c0-0.1,0.1-0.2,0.2-0.2h5.5c0.1,0,0.2,0.1,0.2,0.2V44.6z M41.6,8.9c0,0.1-0.1,0.2-0.2,0.2h-5.5  c-0.1,0-0.2-0.1-0.2-0.2V3.4c0-0.1,0.1-0.2,0.2-0.2h5.5c0.1,0,0.2,0.1,0.2,0.2V8.9z"/></g><g id="SvgjsG1279" featureKey="UyNsn2-0" transform="matrix(2.8555110991676402,0,0,2.8555110991676402,116.17362013785414,12.723643105555677)" fill="#000"><path d="M1.88 5.720000000000001 l3.42 0 l3.04 7.44 l0.23 -0.55 l0.57 -1.37 l0.73 -1.79 l0.73 -1.8 l0.56 -1.38 l0.22 -0.55 l3.2 0 l0.7 14.28 l-3.3 0 l-0.14 -8.34 l-2.34 5.44 l-2.42 0 l-2.42 -5.44 l-0.22 8.34 l-3.1 0 z M22.2 9.44 c0.69334 0 1.34 0.09668 1.94 0.29002 s1.1167 0.50334 1.55 0.93 s0.77334 0.98 1.02 1.66 s0.37 1.5 0.37 2.46 s-0.12334 1.78 -0.37 2.46 s-0.58666 1.2333 -1.02 1.66 s-0.95 0.73666 -1.55 0.93 s-1.2467 0.29 -1.94 0.29 c-0.70666 0 -1.3567 -0.09666 -1.95 -0.29 s-1.1067 -0.50334 -1.54 -0.93 s-0.77334 -0.98 -1.02 -1.66 s-0.37 -1.5 -0.37 -2.46 c0 -0.94666 0.12334 -1.7567 0.37 -2.43 s0.58666 -1.2267 1.02 -1.66 s0.94668 -0.75 1.54 -0.95 s1.2433 -0.3 1.95 -0.3 z M22.2 17.5 c0.6 0 1.07 -0.2 1.41 -0.6 s0.51 -1.1067 0.51 -2.12 s-0.17 -1.7233 -0.51 -2.13 s-0.81 -0.61 -1.41 -0.61 c-0.58666 0 -1.0567 0.21 -1.41 0.63 s-0.53 1.1233 -0.53 2.11 c0 1.0133 0.17334 1.72 0.52 2.12 s0.82 0.6 1.42 0.6 z M27.880000000000003 5.699999999999999 l3.5 -0.000019531 l2.78 9.8 l0.12 0.56 l0.04 -0.28 c0 -0.06666 0.01334 -0.12666 0.04 -0.18 c0.01334 -0.02666 0.02 -0.05332 0.02 -0.07998 l2.82 -9.82 l3.38 0 l-4.62 14.3 l-3.5 0 z M44.86 9.56 l0 10.44 l-3.02 0 l0 -7.22 l0.1 -0.72 l-1.72 0 l1.36 -2.5 l3.28 0 z M44.78 8.7 l-3 0 l0 -2.72 l3 0 l0 2.72 z M51.26 9.44 c0.69334 0 1.3166 0.096622 1.87 0.28996 s1.0167 0.50668 1.39 0.94002 s0.66 0.99 0.86 1.67 s0.3 1.5 0.3 2.46 l0 0.31 l-0.04 0.63 l-5.6 0 l-0.42 -0.06 c0.01334 0.38666 0.05668 0.69666 0.13002 0.93 s0.18 0.41668 0.32 0.55002 s0.31 0.22668 0.51 0.28002 s0.42666 0.08668 0.68 0.10002 c0.41334 0.02666 0.77 -0.03334 1.07 -0.18 s0.58334 -0.44666 0.85 -0.9 c0.41334 0.13334 0.79334 0.26 1.14 0.38 c0.29334 0.10666 0.56 0.2 0.8 0.28 s0.36 0.11334 0.36 0.1 c-0.48 1 -1.0633 1.73 -1.75 2.19 s-1.51 0.69 -2.47 0.69 c-0.70666 0 -1.3467 -0.09334 -1.92 -0.28 s-1.06 -0.49 -1.46 -0.91 s-0.71 -0.96666 -0.93 -1.64 s-0.33 -1.4967 -0.33 -2.47 c0 -0.94666 0.11 -1.7567 0.33 -2.43 s0.53 -1.2267 0.93 -1.66 s0.88666 -0.75334 1.46 -0.96 s1.2133 -0.31 1.92 -0.31 z M52.36 13.440000000000001 l0.30004 0.04 c-0.02666 -0.46666 -0.15 -0.83 -0.37 -1.09 s-0.56334 -0.39 -1.03 -0.39 c-0.53334 0 -0.91668 0.13 -1.15 0.39 s-0.37668 0.62334 -0.43002 1.09 c0.06666 -0.01334 0.12666 -0.02334 0.18 -0.03 s0.11334 -0.01 0.18 -0.01 l2.32 0 z M68.18 9.56 l3.2 0 l-3.02 10.44 l-3.18 0 l-1.38 -5.68 l-0.01 0.03 l-0.04 0.19 l-0.11 0.5 l-0.23 0.97 l-0.38 1.6 l-0.57 2.39 l-3.2 0 l-0.13 -0.44 l-0.34 -1.18 l-0.48 -1.68 l-0.55 -1.92 c-0.44 -1.5333 -0.94 -3.2734 -1.5 -5.22 l3.22 0 l1.3 5.24 l0.12 0.62 l0.12 -0.62 l1.22 -5.24 l3.12 0 l1.26 5.26 l0.14 0.6 l0.04 -0.32 c0.01334 -0.09334 0.03334 -0.19334 0.06 -0.3 z"/></g>
			</g>
		</svg>
	